<svg width="21" height="21" viewBox="0 0 21 21" xmlns="http://www.w3.org/2000/svg"><g id="Page-4" fill="none" fill-rule="evenodd"><g id="new3-copy" fill-rule="nonzero"><g id="logo-linkedin"><path d="M19.236.9H2.19C1.378.9.717 1.546.717 2.342v17.115c0 .796.66 1.443 1.475 1.443h17.046c.816 0 1.48-.647 1.48-1.443V2.342c0-.796-.665-1.442-1.48-1.442z" id="Shape" fill="#007BB5"/><path d="M3.68 8.398h2.97v9.544H3.68V8.398zm1.485-4.745c.95 0 1.72.77 1.72 1.72s-.77 1.72-1.72 1.72c-.953 0-1.72-.77-1.72-1.72s.767-1.72 1.72-1.72zM8.51 8.398h2.843v1.305h.04c.396-.75 1.364-1.542 2.807-1.542 3.004 0 3.56 1.977 3.56 4.548v5.234h-2.967v-4.64c0-1.108-.02-2.532-1.542-2.532-1.542 0-1.778 1.206-1.778 2.452v4.72H8.51V8.398z" id="Shape" fill="#FFF"/></g></g></g></svg>