<svg width="21" height="20" viewBox="0 0 21 20" xmlns="http://www.w3.org/2000/svg"><g id="Page-4" fill="none" fill-rule="evenodd"><g id="new3-copy" fill-rule="nonzero"><g id="logo-instagram" transform="translate(.716 .002)"><path d="M10 0C7.284 0 6.944.012 5.877.06c-1.625.074-3.052.472-4.2 1.618C.533 2.824.135 4.25.06 5.878.012 6.943 0 7.283 0 10s.012 3.056.06 4.123c.074 1.625.472 3.052 1.618 4.2 1.146 1.145 2.573 1.543 4.2 1.617 1.066.048 1.406.06 4.122.06s3.056-.012 4.123-.06c1.625-.074 3.052-.472 4.2-1.618 1.145-1.146 1.543-2.573 1.617-4.2.048-1.066.06-1.406.06-4.122s-.012-3.056-.06-4.123c-.074-1.625-.472-3.052-1.618-4.2C17.176.533 15.75.135 14.122.06 13.057.012 12.717 0 10 0z" id="Shape" fill="#E02D69"/><path d="M10 4.535c1.78 0 1.99.006 2.694.038.758.035 1.463.187 2.004.73.542.54.694 1.245.73 2.003.03.703.037.914.037 2.694 0 1.78-.006 1.99-.038 2.694-.035.758-.187 1.463-.73 2.004-.54.542-1.244.694-2.003.73-.703.03-.914.037-2.694.037-1.78 0-1.99-.006-2.694-.038-.758-.035-1.463-.187-2.004-.73-.542-.54-.694-1.244-.73-2.003-.03-.703-.037-.914-.037-2.694 0-1.78.006-1.99.038-2.694.035-.758.187-1.463.73-2.004.54-.542 1.245-.694 2.003-.73.703-.03.914-.037 2.694-.037zm0-1.202c-1.81 0-2.037.008-2.75.04-1.082.05-2.034.315-2.798 1.08-.764.763-1.03 1.715-1.08 2.798-.03.713-.04.94-.04 2.75s.01 2.037.04 2.75c.05 1.082.316 2.034 1.08 2.798.764.764 1.716 1.03 2.8 1.08.71.03.938.04 2.748.04 1.81 0 2.037-.01 2.75-.04 1.082-.05 2.034-.316 2.798-1.08.764-.764 1.03-1.716 1.08-2.8.03-.71.04-.938.04-2.748 0-1.81-.01-2.037-.04-2.75-.05-1.082-.316-2.034-1.08-2.798-.764-.764-1.716-1.03-2.8-1.08-.71-.03-.938-.04-2.748-.04z" id="Shape" fill="#FFF"/><path d="M10 6.577C8.11 6.577 6.577 8.11 6.577 10c0 1.89 1.533 3.423 3.423 3.423 1.89 0 3.423-1.533 3.423-3.423 0-1.89-1.532-3.423-3.423-3.423zm0 5.645c-1.227 0-2.222-.995-2.222-2.222 0-1.227.995-2.222 2.222-2.222 1.227 0 2.222.995 2.222 2.222 0 1.227-.995 2.222-2.222 2.222z" id="Shape" fill="#FFF"/><circle id="Oval" fill="#FFF" cx="13.559" cy="6.441" r="1"/></g></g></g></svg>