<svg width="21" height="20" viewBox="0 0 21 20" xmlns="http://www.w3.org/2000/svg"><g id="Page-4" fill="none" fill-rule="evenodd"><g id="new3-copy" fill="#444"><g id="logo-github"><path d="M10.716.25c-5.5 0-10 4.5-10 10 0 4.438 2.875 8.188 6.812 9.5.5.063.688-.188.688-.5v-1.688c-2.813.625-3.375-1.312-3.375-1.312-.437-1.125-1.124-1.438-1.124-1.438-.938-.624.062-.624.062-.624 1 .062 1.563 1 1.563 1 .876 1.5 2.313 1.062 2.938.812.063-.625.375-1.063.625-1.313-2.25-.25-4.562-1.124-4.562-4.937 0-1.063.376-2 1-2.688-.124-.25-.437-1.25.126-2.625 0 0 .812-.25 2.75 1 .812-.25 1.625-.312 2.5-.312s1.687.125 2.5.313c1.937-1.313 2.75-1.063 2.75-1.063.562 1.375.187 2.375.125 2.625.626.688 1 1.563 1 2.688 0 3.812-2.312 4.687-4.562 4.937.375.313.688.938.688 1.875v2.75c0 .25.187.563.687.5 3.938-1.313 6.813-5.063 6.813-9.5 0-5.5-4.5-10-10-10z" id="Shape"/></g></g></g></svg>