<svg height="22" viewBox="0 0 22 22" width="22" xmlns="http://www.w3.org/2000/svg" xmlns:xlink="http://www.w3.org/1999/xlink"><filter id="a" height="200%" width="200%" x="-50%" y="-35.7%"><feOffset dx="0" dy="2" in="SourceAlpha" result="shadowOffsetOuter1"/><feGaussianBlur in="shadowOffsetOuter1" result="shadowBlurOuter1" stdDeviation="2"/><feColorMatrix in="shadowBlurOuter1" result="shadowMatrixOuter1" type="matrix" values="0 0 0 0 0   0 0 0 0 0   0 0 0 0 0  0 0 0 0.181329257 0"/><feMerge><feMergeNode in="shadowMatrixOuter1"/><feMergeNode in="SourceGraphic"/></feMerge></filter><g fill="none" filter="url(#a)" transform="translate(4 2)"><path d="m13.0869565 7h-12.17391302l-.91304348-1 1.2173913-1h11.5652174l1.2173913 1z" fill="#f7484e"/><path d="m12.3684211 14h-10.73684215c-.34894737 0-.63157895-.2723913-.63157895-.6086957v-12.78260865c0-.33630435.28263158-.60869565.63157895-.60869565h7.57894737l3.78947368 3.65217391v9.73913039c0 .3363044-.2826316.6086957-.6315789.6086957z" fill="#e6e6e6"/><path d="m9 0v3.33333333c0 .36833334.29833333.66666667.66666667.66666667h3.33333333z" fill="#b3b3b3"/><path d="m13.3913043 12h-12.78260865c-.33630435 0-.60869565-.2486111-.60869565-.5555556v-4.4444444h14v4.4444444c0 .3069445-.2723913.5555556-.6086957.5555556z" fill="#f7484e"/><g fill="#fff" transform="translate(4 8.599976)"><path d="m2 .63618999c0 .22360881-.09089314.39628168-.27232848.51776391-.18178628.1219916-.43937533.18260538-.77381997.18260538h-.2091595v.66344072h-.74469205v-2h.95385155c.34813125 0 .60958063.0552655.7839972.16528715.1747675.11053101.26215125.26766841.26215125.47090284zm-1.25530795.26002802h.1358133c.11194947 0 .20073697-.02292118.26671346-.06876353.06597649-.04558768.09896473-.10849357.09896473-.18846301 0-.13498026-.10282506-.20247039-.30917705-.20247039h-.19231444z"/><path d="m4.5.95759582c0 .33388514-.10831083.590857-.32493249.77142494-.21632164.18082261-.52055206.27097924-.91269127.27097924h-.76237624v-2h.81548155c.3780378 0 .66996699.08200688.87578758.24627531.20582058.16426843.30873087.40112059.30873087.71132051zm-.66066607.01910098c0-.18336941-.04260426-.31911371-.12811281-.40774226-.08520852-.08862855-.21512151-.13268814-.38913891-.13268814h-.18541854v1.12008149h.14191419c.19351935 0 .33513351-.04787979.42544254-.14313001s.13531353-.24041768.13531353-.43652108z"/><path d="m5.45011851 2h-.45011851v-2h1v.43346492h-.54966602v.38176493h.5070028v.43346492h-.5070028v.75130523z"/></g></g></svg>