<svg xmlns="http://www.w3.org/2000/svg" width="20" height="20" viewBox="0 0 20 20">
  <path fill="#FFF" fill-rule="evenodd" d="M18.3200928,0.306659285 L0.816569694,0.306659285 C0.368527293,0.306659285 0.0100933729,0.660123296 0.0100933729,1.10195331 L0.0100933729,18.3922345 C0.0100933729,18.8046092 0.368527293,19.1580732 0.816569694,19.1580732 L18.3499623,19.1580732 C18.7980047,19.1580732 19.1564386,18.8046092 19.1564386,18.3627792 L19.1564386,1.10195331 C19.1265691,0.660123296 18.7681352,0.306659285 18.3200928,0.306659285 Z M5.68529711,16.3598165 L2.84769524,16.3598165 L2.84769524,7.37593951 L5.68529711,7.37593951 L5.68529711,16.3598165 Z M4.25156143,6.13881547 C3.35547663,6.13881547 2.6087393,5.40243211 2.6087393,4.51877208 C2.6087393,3.63511206 3.35547663,2.8987287 4.25156143,2.8987287 C5.14764623,2.8987287 5.89438357,3.63511206 5.89438357,4.51877208 C5.89438357,5.43188744 5.17751573,6.13881547 4.25156143,6.13881547 Z M16.2889673,16.3598165 L13.4513654,16.3598165 L13.4513654,12.000427 C13.4513654,10.9694903 13.4214959,9.61454491 11.9877602,9.61454491 C10.524155,9.61454491 10.2851991,10.7633029 10.2851991,11.912061 L10.2851991,16.3598165 L7.44759722,16.3598165 L7.44759722,7.37593951 L10.1657211,7.37593951 L10.1657211,8.61306354 L10.1955906,8.61306354 C10.583894,7.90613552 11.5098483,7.16975217 12.883845,7.16975217 C15.7513164,7.16975217 16.2889673,9.02543822 16.2889673,11.4407756 L16.2889673,16.3598165 Z" transform="translate(.16 .084)"/>
</svg>
