<svg width="17px" height="24px" xmlns="http://www.w3.org/2000/svg"><g id="Welcome" fill="none" fill-rule="evenodd"><g id="Desktop-HD-Copy-17" transform="translate(-897 -508)" fill="#FFF" fill-rule="nonzero"><path d="M897 525.035c0-1.917.814-2.93 2.4-3.364-.251-.628-.376-1.09-.376-1.389 0-1.103 1.394-2.47 2.447-2.47.266 0 .58.07.94.212-.752-2.15-1.293-3.78-1.623-4.895-.43-1.451-1.006-3.339 0-4.47.392-.44.918-.659 1.577-.659 1.13 0 2.486 2.314 4.07 6.941l.4 1.153c.6-1.5 2.442-7.647 4.518-7.647.627 0 1.122.212 1.482.635 1.015 1.141.417 2.831 0 4.306-.33 1.145-.847 2.714-1.553 4.706.894.22 1.538.643 1.93 1.27.423.675.635 1.718.635 3.13 0 2.792-.831 5.075-2.494 6.847-1.694 1.773-3.843 2.659-6.447 2.659-3.216 0-6.04-1.889-7.294-4.447-.408-.847-.612-1.686-.612-2.518zm1.53-.117c0 .983.656 2.169 1.246 2.964 1.385 1.79 3.195 2.565 5.318 2.565 2.024 0 3.726-.76 5.106-2.282 1.365-1.506 2.047-3.412 2.047-5.718 0-.789-.002-1.968-.588-2.47-.424-.361-1.255-.675-2.494-.942a17.757 17.757 0 0 0-3.953-.423c-.54 0-.824.081-.824.612 0 .643.361 1.098 1.083 1.364.784.33 2.078.494 3.882.494h.659c.369 0 .696.193.8.989-.677.676-1.79.767-2.541 1.34a5.48 5.48 0 0 0-1.506 1.624c-.361.612-.541 1.192-.541 1.741 0 .33.078.73.235 1.2.172.518.259.855.259 1.012-.005.146-.047.247-.224.318-.73.165-1.063-.192-1.376-.788-.267-.502-.416-1.145-.447-1.93-.095.032-.44.024-.542.024.016.078.024.172.024.282 0 .47-.18.87-.541 1.2-.361.33-.785.494-1.27.494-.738 0-1.483-.353-2.236-1.059-.753-.721-1.13-1.427-1.13-2.117 0-.41.176-.622.448-.894.392.486.658.823.8 1.011.658.926 1.254 1.389 1.788 1.389.3 0 .54-.222.54-.377 0-.125-.093-.353-.281-.682-.276-.516-1.361-1.956-1.93-2.424-.235-.22-.408-.33-.517-.33-.53 0-1.295.68-1.295 1.813zm2.117-4.494c0 .203.126.556.377 1.058.462.893 1.55 2.332 2.376 3.06.376.313.659.47.847.47.241 0 .494-.287.494-.541 0-.189-.141-.644-.423-1.365-.389-.944-1.216-2.672-2-3.318-.251-.235-.494-.353-.73-.353-.335 0-.94.615-.94.989zm1.059-10.165c0 .533.188 1.372.565 2.517.345 1.114.862 2.604 1.553 4.471.355-.213 1.215-.112 1.67-.07l-1.623-4.706c-.44-1.255-.785-2.071-1.036-2.447-.204-.33-.408-.495-.611-.495-.342 0-.518.386-.518.73zm3.906 12c.141.36.29.753.447 1.176.314-.36.627-.659.941-.894-.479-.096-.864-.107-1.388-.282zm2.47-4.8l1.577.282a135.574 135.574 0 0 0 1.623-4.682c.217-.703.846-2.305.424-2.847-.143-.25-.582-.324-1.082.47-.299.455-.636 1.247-1.012 2.377l-1.53 4.4z" id="icon-angellist"/></g></g></svg>