<svg xmlns="http://www.w3.org/2000/svg" width="48" height="48"><g class="nc-icon-wrapper"><path d="M24 46a22 22 0 1 1 22-22 22.025 22.025 0 0 1-22 22z" fill="#ffd764"/><path d="M35.6 32a11.932 11.932 0 0 0 .4-3 1 1 0 0 0-1-1H13a1 1 0 0 0-1 1 11.932 11.932 0 0 0 .395 3z" fill="#fff"/><path d="M12.4 32a11.982 11.982 0 0 0 23.2 0z" fill="#ae453e"/><path d="M18.014 39.385a11.9 11.9 0 0 0 11.972 0 6.985 6.985 0 0 0-11.972 0z" fill="#e86c60"/><path d="M20.949 14.084l-4.571.112-2.683-3.7a1 1 0 0 0-1.768.3l-1.306 4.382-4.35 1.408a1 1 0 0 0-.26 1.774l3.763 2.6v4.572a1 1 0 0 0 1.607.8l3.633-2.777 4.346 1.417a1 1 0 0 0 1.254-1.282l-1.524-4.322 2.691-3.695a1 1 0 0 0 .078-1.053.939.939 0 0 0-.91-.536zM42.41 17.391a1 1 0 0 0-.681-.806l-4.35-1.408-1.306-4.377a1 1 0 0 0-1.768-.3l-2.683 3.7-4.571-.112a.93.93 0 0 0-.91.536 1 1 0 0 0 .078 1.053l2.691 3.695-1.519 4.313a1 1 0 0 0 1.254 1.282l4.346-1.417 3.633 2.777a1 1 0 0 0 .607.2 1 1 0 0 0 1-1l-.005-4.572 3.763-2.6a1 1 0 0 0 .421-.964z" fill="#e2ac4b"/></g></svg>