<svg xmlns="http://www.w3.org/2000/svg" width="48" height="48"><g class="nc-icon-wrapper"><path d="M24 46a22 22 0 1 1 22-22 22.025 22.025 0 0 1-22 22z" fill="#ffd764"/><circle cx="38" cy="28" r="3" fill="#e86c60" opacity=".5"/><circle cx="10" cy="28" r="3" fill="#e86c60" opacity=".5"/><path d="M19 24a1 1 0 0 1-1-1 2 2 0 0 0-4 0 1 1 0 0 1-2 0 4 4 0 0 1 8 0 1 1 0 0 1-1 1zM35 24a1 1 0 0 1-1-1 2 2 0 0 0-4 0 1 1 0 0 1-2 0 4 4 0 0 1 8 0 1 1 0 0 1-1 1zM24.059 39a9.025 9.025 0 0 1-7.81-4.537 1 1 0 0 1 1.736-.994 6.989 6.989 0 0 0 12.147 0 1 1 0 0 1 1.736.994A9.024 9.024 0 0 1 24.059 39z" fill="#444"/></g></svg>