<svg xmlns="http://www.w3.org/2000/svg" xmlns:xlink="http://www.w3.org/1999/xlink" height="18.478" width="25"><defs><path id="a" opacity="1" fill-rule="evenodd" d="M24.457 18.478H.543A.543.543 0 0 1 0 17.935V.543C0 .243.243 0 .543 0h23.914c.3 0 .543.243.543.543v17.392c0 .3-.243.543-.543.543z"/><path id="b" opacity="1" fill-rule="evenodd" d="M12.5 6.522c.131 0 .262.047.366.14l11.956 10.87a.544.544 0 0 1-.365.946H.543a.543.543 0 0 1-.365-.946l11.956-10.87a.544.544 0 0 1 .366-.14z"/><path id="c" opacity="1" fill-rule="evenodd" d="M12.5 11.957a.544.544 0 0 1-.366-.142L.178.945A.544.544 0 0 1 .543 0h23.914a.543.543 0 0 1 .365.946l-11.956 10.87a.544.544 0 0 1-.366.14z"/></defs><use xlink:href="#a" fill="#B3B3B3"/><use xlink:href="#b" fill="#D6D6D6"/><use xlink:href="#c" fill="#E6E6E6"/></svg>