<svg xmlns="http://www.w3.org/2000/svg" xmlns:xlink="http://www.w3.org/1999/xlink" height="25" width="24.999"><defs><path id="a" opacity="1" fill-rule="evenodd" d="M23.15 0H1.844C.827 0 0 .807 0 1.803v21.393C0 24.192.827 25 1.844 25H23.15c1.02 0 1.85-.808 1.85-1.804V1.803C25 .807 24.17 0 23.15 0z"/><path id="b" opacity="1" fill-rule="evenodd" d="M7.71 5.592a2.15 2.15 0 1 0-4.301 0 2.15 2.15 0 0 0 4.301 0zm-.294 3.78H3.704v11.93h3.712V9.373z"/><path id="c" opacity="1" fill-rule="evenodd" d="M9.742 9.372h3.554v1.631h.051c.494-.938 1.704-1.927 3.508-1.927 3.755 0 4.448 2.47 4.448 5.684v6.543h-3.707V15.5c0-1.384-.024-3.163-1.927-3.163-1.93 0-2.224 1.507-2.224 3.064v5.9H9.742V9.373z"/></defs><use xlink:href="#a" fill="#007BB5"/><use xlink:href="#b" fill="#FFF"/><use xlink:href="#c" fill="#FFF"/></svg>