<svg xmlns="http://www.w3.org/2000/svg" xmlns:xlink="http://www.w3.org/1999/xlink" height="25" width="25"><defs><path id="a" opacity="1" fill-rule="evenodd" d="M12.5 0C9.105 0 8.68.015 7.346.075c-2.03.093-3.815.59-5.248 2.023C.666 3.53.168 5.314.075 7.346.015 8.68 0 9.106 0 12.5c0 3.395.015 3.82.075 5.154.093 2.03.59 3.815 2.023 5.248 1.432 1.432 3.216 1.93 5.248 2.023 1.334.06 1.76.075 5.154.075 3.395 0 3.82-.015 5.154-.075 2.03-.093 3.815-.59 5.248-2.023 1.432-1.432 1.93-3.216 2.023-5.248.06-1.334.075-1.76.075-5.154 0-3.395-.015-3.82-.075-5.154-.093-2.03-.59-3.815-2.023-5.248C21.47.666 19.686.168 17.654.075 16.32.015 15.894 0 12.5 0z"/><path id="b" opacity="1" fill-rule="evenodd" d="M9.064 4.217c.89-.041 1.173-.05 3.436-.05s2.547.009 3.436.05c1.355.062 2.544.394 3.499 1.348.955.956 1.286 2.145 1.348 3.5.041.888.05 1.172.05 3.435s-.009 2.547-.05 3.436c-.062 1.355-.393 2.544-1.348 3.5-.955.954-2.145 1.285-3.499 1.347-.89.041-1.173.05-3.436.05s-2.547-.009-3.436-.05c-1.355-.062-2.544-.393-3.499-1.348-.955-.955-1.286-2.145-1.348-3.499-.04-.89-.05-1.173-.05-3.436s.01-2.547.05-3.436c.062-1.355.393-2.544 1.348-3.499.955-.954 2.145-1.286 3.5-1.348zm6.803 1.5c-.878-.04-1.142-.049-3.367-.049s-2.489.009-3.367.049c-.949.043-1.829.233-2.506.91-.677.677-.867 1.557-.91 2.506-.04.878-.049 1.142-.049 3.367s.009 2.489.049 3.367c.043.949.233 1.829.91 2.506.677.677 1.557.867 2.506.91.878.04 1.142.049 3.367.049s2.489-.009 3.367-.049c.949-.043 1.829-.233 2.506-.91.677-.677.867-1.557.91-2.506.04-.878.049-1.142.049-3.367s-.009-2.489-.049-3.367c-.043-.949-.233-1.829-.91-2.506-.677-.677-1.557-.867-2.506-.91z"/><path id="c" opacity="1" fill-rule="evenodd" d="M8.22 12.5a4.28 4.28 0 1 1 8.56 0 4.28 4.28 0 0 1-8.56 0zm1.502 0a2.777 2.777 0 1 0 5.555 0 2.777 2.777 0 0 0-5.555 0z"/><ellipse id="d" opacity="1" rx="1" ry="1" cx="16.948" cy="8.052"/></defs><use xlink:href="#a" fill="#E02D69"/><use xlink:href="#b" fill="#FFF"/><use xlink:href="#c" fill="#FFF"/><use xlink:href="#d" fill="#FFF"/></svg>