<svg xmlns="http://www.w3.org/2000/svg" viewBox="0 0 48 48" width="24" height="24"><title>logo mixer</title><g class="nc-icon-wrapper"><path d="M10.107,6.34a4.493,4.493,0,0,0-6.289-.916,4.128,4.128,0,0,0-.339.28,4.627,4.627,0,0,0-.455,6.157l9,12.1L2.958,36.139A4.625,4.625,0,0,0,3.413,42.3,4.493,4.493,0,0,0,9.761,42a4.3,4.3,0,0,0,.28-.339L22.7,24.655a1.175,1.175,0,0,0,0-1.4Z" fill="#0a214c"/> <path d="M37.893,6.34a4.493,4.493,0,0,1,6.289-.916,4.128,4.128,0,0,1,.339.28,4.627,4.627,0,0,1,.455,6.157l-9,12.1,9.07,12.183a4.625,4.625,0,0,1-.455,6.157,4.493,4.493,0,0,1-6.348-.3,4.3,4.3,0,0,1-.28-.339l-12.646-17a1.175,1.175,0,0,1,0-1.4Z" fill="#55b8e8"/></g></svg>