<svg xmlns="http://www.w3.org/2000/svg" xmlns:xlink="http://www.w3.org/1999/xlink" height="20.317" width="25"><defs><path id="a" opacity="1" fill-rule="evenodd" d="M25 2.405c-.92.408-1.908.684-2.946.808A5.144 5.144 0 0 0 24.31.375a10.27 10.27 0 0 1-3.257 1.245 5.13 5.13 0 0 0-8.74 4.678A14.561 14.561 0 0 1 1.74.938a5.105 5.105 0 0 0-.694 2.58c0 1.779.905 3.349 2.282 4.269a5.108 5.108 0 0 1-2.323-.642v.064a5.132 5.132 0 0 0 4.113 5.03 5.139 5.139 0 0 1-2.316.088 5.134 5.134 0 0 0 4.791 3.562 10.291 10.291 0 0 1-6.37 2.195c-.413 0-.822-.024-1.223-.071a14.518 14.518 0 0 0 7.862 2.304c9.435 0 14.594-7.815 14.594-14.593 0-.223-.005-.444-.015-.664A10.424 10.424 0 0 0 25 2.405z"/></defs><use xlink:href="#a" fill="#69ACE0"/></svg>